<svg width="26" height="26" viewBox="0 0 26 26" fill="none" xmlns="http://www.w3.org/2000/svg">
<path d="M4.33268 21.6663C3.73685 21.6663 3.22696 21.4544 2.80302 21.0304C2.37907 20.6065 2.16674 20.0962 2.16602 19.4997V6.49967C2.16602 5.90384 2.37835 5.39395 2.80302 4.97001C3.22768 4.54606 3.73757 4.33373 4.33268 4.33301H9.93893C10.2278 4.33301 10.5033 4.38717 10.7655 4.49551C11.0277 4.60384 11.2577 4.75731 11.4556 4.95592L12.9993 6.49967H22.7493C23.0563 6.49967 23.3138 6.60367 23.5218 6.81167C23.7298 7.01967 23.8334 7.27679 23.8327 7.58301C23.832 7.88923 23.728 8.1467 23.5207 8.35542C23.3134 8.56415 23.0563 8.66779 22.7493 8.66634H8.50352C7.38407 8.66634 6.40907 9.01842 5.57852 9.72259C4.74796 10.4268 4.33268 11.3205 4.33268 12.4038V19.4997L6.47227 12.3768C6.61671 11.9073 6.88321 11.5328 7.27177 11.2533C7.66032 10.9738 8.08896 10.8337 8.55768 10.833H22.5327C23.273 10.833 23.8554 11.1266 24.2801 11.7138C24.7048 12.3009 24.8174 12.9372 24.6181 13.6226L22.6681 20.1226C22.5237 20.592 22.2575 20.9669 21.8697 21.2471C21.4818 21.5273 21.0528 21.6671 20.5827 21.6663H4.33268Z" fill="white"/>
</svg>
