<svg width="24" height="24" viewBox="0 0 24 24" fill="none" xmlns="http://www.w3.org/2000/svg">
<g clip-path="url(#clip0_248_799)">
<path fill-rule="evenodd" clip-rule="evenodd" d="M4.0475 0.773C5.6905 0.6395 8.293 0.5 12 0.5C15.707 0.5 18.3095 0.6395 19.9525 0.773C21.7185 0.9165 23.084 2.2815 23.2275 4.048C23.361 5.69 23.5 8.2925 23.5 12C23.5 15.7075 23.361 18.3095 23.2275 19.9525C23.084 21.7185 21.7185 23.084 19.9525 23.2275C18.3095 23.361 15.707 23.5 12 23.5C8.293 23.5 5.6905 23.361 4.0475 23.2275C2.2815 23.084 0.916 21.7185 0.7725 19.9525C0.64 18.3095 0.5 15.707 0.5 12C0.5 8.293 0.6395 5.6905 0.773 4.0475C0.9165 2.2815 2.2815 0.916 4.048 0.7725M2.5875 7.25C2.52686 8.8326 2.49769 10.4162 2.5 12C2.5 15.657 2.6375 18.205 2.766 19.79C2.8305 20.58 3.4205 21.17 4.2095 21.234C5.795 21.3625 8.343 21.5 12 21.5C15.657 21.5 18.205 21.3625 19.79 21.234C20.58 21.1695 21.17 20.5795 21.234 19.7905C21.3625 18.205 21.5 15.657 21.5 12C21.5 10.135 21.4645 8.558 21.412 7.25H2.5875ZM3.625 4.25C3.625 3.767 4.017 3.375 4.5 3.375H5.5C5.73206 3.375 5.95462 3.46719 6.11872 3.63128C6.28281 3.79538 6.375 4.01794 6.375 4.25C6.375 4.48206 6.28281 4.70462 6.11872 4.86872C5.95462 5.03281 5.73206 5.125 5.5 5.125H4.5C4.26794 5.125 4.04538 5.03281 3.88128 4.86872C3.71719 4.70462 3.625 4.48206 3.625 4.25ZM8.5 3.375C8.26794 3.375 8.04538 3.46719 7.88128 3.63128C7.71719 3.79538 7.625 4.01794 7.625 4.25C7.625 4.48206 7.71719 4.70462 7.88128 4.86872C8.04538 5.03281 8.26794 5.125 8.5 5.125H9.5C9.73206 5.125 9.95462 5.03281 10.1187 4.86872C10.2828 4.70462 10.375 4.48206 10.375 4.25C10.375 4.01794 10.2828 3.79538 10.1187 3.63128C9.95462 3.46719 9.73206 3.375 9.5 3.375H8.5Z" fill="black"/>
</g>
<defs>
<clipPath id="clip0_248_799">
<rect width="24" height="24" fill="white"/>
</clipPath>
</defs>
</svg>
