<svg width="24" height="24" viewBox="0 0 24 24" fill="none" xmlns="http://www.w3.org/2000/svg">
<g clip-path="url(#clip0_248_765)">
<path d="M23.9991 12.0735C23.9991 5.40447 18.6261 -0.00152588 11.9991 -0.00152588C5.36909 -2.58789e-05 -0.00390625 5.40448 -0.00390625 12.075C-0.00390625 18.1005 4.38509 23.0955 10.1211 24.0015V15.564H7.07609V12.075H10.1241V9.41247C10.1241 6.38697 11.9166 4.71597 14.6571 4.71597C15.9711 4.71597 17.3436 4.95147 17.3436 4.95147V7.92147H15.8301C14.3406 7.92147 13.8756 8.85297 13.8756 9.80847V12.0735H17.2026L16.6716 15.5625H13.8741V24C19.6101 23.094 23.9991 18.099 23.9991 12.0735Z" fill="#3D5A98"/>
</g>
<defs>
<clipPath id="clip0_248_765">
<rect width="24" height="24" fill="white"/>
</clipPath>
</defs>
</svg>
