<svg width="24" height="27" viewBox="0 0 24 27" fill="none" xmlns="http://www.w3.org/2000/svg">
<g clip-path="url(#clip0_248_648)">
<path d="M17.7872 9.72193C19.5383 10.9644 21.6835 11.6954 24.0003 11.6954V7.27023C23.5618 7.2704 23.1245 7.22497 22.6955 7.13467V10.618C20.3788 10.618 18.2339 9.887 16.4825 8.64463V17.6753C16.4825 22.1929 12.7929 25.8549 8.24186 25.8549C6.54377 25.8549 4.96539 25.3453 3.6543 24.4714C5.15073 25.9902 7.23761 26.9323 9.5463 26.9323C14.0977 26.9323 17.7874 23.2703 17.7874 18.7525V9.72193H17.7872ZM19.3969 5.25743C18.502 4.28701 17.9143 3.03291 17.7872 1.64641V1.07727H16.5507C16.862 2.83944 17.9237 4.34492 19.3969 5.25743ZM6.5328 21.0048C6.03277 20.3541 5.7625 19.558 5.76377 18.7396C5.76377 16.6734 7.45136 14.9981 9.53345 14.9981C9.92141 14.9979 10.3071 15.057 10.6769 15.1734V10.6492C10.2447 10.5905 9.80861 10.5654 9.37267 10.5747V14.096C9.00265 13.9796 8.61678 13.9205 8.22864 13.9208C6.14664 13.9208 4.45914 15.5959 4.45914 17.6623C4.45914 19.1235 5.30261 20.3885 6.5328 21.0048Z" fill="#FF004F"/>
<path d="M16.4815 8.64453C18.233 9.8869 20.3778 10.6179 22.6945 10.6179V7.13458C21.4013 6.86114 20.2565 6.19042 19.3958 5.25743C17.9225 4.34483 16.861 2.83935 16.5498 1.07727H13.302V18.7523C13.2946 20.8129 11.6099 22.4813 9.53228 22.4813C8.30809 22.4813 7.22041 21.9021 6.53163 21.0047C5.30163 20.3885 4.45806 19.1234 4.45806 17.6624C4.45806 15.5962 6.14556 13.9209 8.22756 13.9209C8.62647 13.9209 9.01094 13.9825 9.37159 14.0961V10.5748C4.90047 10.6665 1.30469 14.2927 1.30469 18.7524C1.30469 20.9787 2.20009 22.9969 3.65341 24.4716C4.9645 25.3453 6.54278 25.8551 8.24097 25.8551C12.7921 25.8551 16.4816 22.1929 16.4816 17.6753L16.4815 8.64453Z" fill="black"/>
<path d="M22.6945 7.13452V6.19287C21.5284 6.19455 20.3853 5.8704 19.3958 5.25746C20.2717 6.20917 21.4249 6.86548 22.6945 7.1347M16.5497 1.07721C16.52 0.908836 16.4973 0.739342 16.4814 0.569141V0H11.997V17.6752C11.9899 19.7356 10.3052 21.404 8.2275 21.404C7.63849 21.4049 7.05754 21.2682 6.53156 21.0049C7.22034 21.9021 8.30803 22.4812 9.53222 22.4812C11.6097 22.4812 13.2946 20.813 13.3019 18.7524V1.0773L16.5497 1.07721ZM9.37181 10.5747V9.57206C8.99708 9.52125 8.6193 9.49581 8.24109 9.4959C3.68953 9.4959 0 13.158 0 17.6752C0 20.5073 1.45003 23.0033 3.65353 24.4714C2.20022 22.9968 1.30481 20.9785 1.30481 18.7523C1.30481 14.2927 4.9005 10.6664 9.37181 10.5747Z" fill="#00F2EA"/>
</g>
<defs>
<clipPath id="clip0_248_648">
<rect width="24" height="27" fill="white"/>
</clipPath>
</defs>
</svg>
