<svg width="178" height="160" viewBox="0 0 178 160" fill="none" xmlns="http://www.w3.org/2000/svg">
<g clip-path="url(#clip0_142_344)">
<path d="M169.1 0H8.9C3.98467 0 0 5.37258 0 12V148C0 154.627 3.98467 160 8.9 160H169.1C174.015 160 178 154.627 178 148V12C178 5.37258 174.015 0 169.1 0Z" fill="#FDFAFD"/>
<path d="M135.003 54H38.5863C36.5382 54 34.8779 56.2386 34.8779 59C34.8779 61.7614 36.5382 64 38.5863 64H135.003C137.051 64 138.711 61.7614 138.711 59C138.711 56.2386 137.051 54 135.003 54Z" fill="#E5E7EB"/>
<path d="M135.003 54H38.5863C36.5382 54 34.8779 56.2386 34.8779 59C34.8779 61.7614 36.5382 64 38.5863 64H135.003C137.051 64 138.711 61.7614 138.711 59C138.711 56.2386 137.051 54 135.003 54Z" fill="#E5E7EB"/>
<path d="M120.17 72H38.5863C36.5382 72 34.8779 74.2386 34.8779 77C34.8779 79.7614 36.5382 82 38.5863 82H120.17C122.218 82 123.878 79.7614 123.878 77C123.878 74.2386 122.218 72 120.17 72Z" fill="#E5E7EB"/>
<path d="M120.17 72H38.5863C36.5382 72 34.8779 74.2386 34.8779 77C34.8779 79.7614 36.5382 82 38.5863 82H120.17C122.218 82 123.878 79.7614 123.878 77C123.878 74.2386 122.218 72 120.17 72Z" fill="#E5E7EB"/>
<path d="M105.336 90H38.5863C36.5382 90 34.8779 92.2386 34.8779 95C34.8779 97.7614 36.5382 100 38.5863 100H105.336C107.384 100 109.045 97.7614 109.045 95C109.045 92.2386 107.384 90 105.336 90Z" fill="#E5E7EB"/>
<path d="M105.336 90H38.5863C36.5382 90 34.8779 92.2386 34.8779 95C34.8779 97.7614 36.5382 100 38.5863 100H105.336C107.384 100 109.045 97.7614 109.045 95C109.045 92.2386 107.384 90 105.336 90Z" fill="#E5E7EB"/>
<path d="M149.095 30H39.3279C36.8703 30 34.8779 32.6863 34.8779 36C34.8779 39.3137 36.8703 42 39.3279 42H149.095C151.552 42 153.545 39.3137 153.545 36C153.545 32.6863 151.552 30 149.095 30Z" fill="#9E2AB2"/>
<path d="M149.095 30H39.3279C36.8703 30 34.8779 32.6863 34.8779 36C34.8779 39.3137 36.8703 42 39.3279 42H149.095C151.552 42 153.545 39.3137 153.545 36C153.545 32.6863 151.552 30 149.095 30Z" fill="#9E2AB2"/>
<path d="M73.7252 107H36.9225C35.7933 107 34.8779 109.239 34.8779 112C34.8779 114.761 35.7933 117 36.9225 117H73.7252C74.8544 117 75.7698 114.761 75.7698 112C75.7698 109.239 74.8544 107 73.7252 107Z" fill="#E5E7EB"/>
<path d="M73.7252 107H36.9225C35.7933 107 34.8779 109.239 34.8779 112C34.8779 114.761 35.7933 117 36.9225 117H73.7252C74.8544 117 75.7698 114.761 75.7698 112C75.7698 109.239 74.8544 107 73.7252 107Z" fill="#E5E7EB"/>
<path d="M87.7072 105H87.3364C86.9268 105 86.5947 105.448 86.5947 106V118C86.5947 118.552 86.9268 119 87.3364 119H87.7072C88.1168 119 88.4489 118.552 88.4489 118V106C88.4489 105.448 88.1168 105 87.7072 105Z" fill="#9E2AB2"/>
<path d="M87.7072 105H87.3364C86.9268 105 86.5947 105.448 86.5947 106V118C86.5947 118.552 86.9268 119 87.3364 119H87.7072C88.1168 119 88.4489 118.552 88.4489 118V106C88.4489 105.448 88.1168 105 87.7072 105Z" fill="#9E2AB2"/>
</g>
<defs>
<clipPath id="clip0_142_344">
<rect width="178" height="160" fill="white"/>
</clipPath>
</defs>
</svg>
