<svg width="178" height="160" viewBox="0 0 178 160" fill="none" xmlns="http://www.w3.org/2000/svg">
<g clip-path="url(#clip0_142_353)">
<path d="M164.1 -6H3.9C-1.01533 -6 -5 -0.627417 -5 6V142C-5 148.627 -1.01533 154 3.9 154H164.1C169.015 154 173 148.627 173 142V6C173 -0.627417 169.015 -6 164.1 -6Z" fill="#F9FAFB"/>
<path d="M164.1 -6H3.9C-1.01533 -6 -5 -0.627417 -5 6V142C-5 148.627 -1.01533 154 3.9 154H164.1C169.015 154 173 148.627 173 142V6C173 -0.627417 169.015 -6 164.1 -6Z" fill="#F9FAFB"/>
<path d="M38.3502 107C33.9783 107 31.0742 102.474 32.8958 98.5001L53.4724 53.6057C55.5064 49.1679 61.7062 48.8872 64.1329 53.1229L80.0598 80.9225C82.0372 84.374 86.7646 84.9809 89.5497 82.1409L105.132 66.2511C107.861 63.4684 112.478 63.9855 114.523 67.3031L133.359 97.851C135.824 101.848 132.948 107 128.252 107H38.3502Z" fill="#D1D5DB"/>
<path d="M38.3502 107C33.9783 107 31.0742 102.474 32.8958 98.5001L53.4724 53.6057C55.5064 49.1679 61.7062 48.8872 64.1329 53.1229L80.0598 80.9225C82.0372 84.374 86.7646 84.9809 89.5497 82.1409L105.132 66.2511C107.861 63.4684 112.478 63.9855 114.523 67.3031L133.359 97.851C135.824 101.848 132.948 107 128.252 107H38.3502Z" fill="#D1D5DB"/>
<path d="M44.5 36C48.0899 36 51 33.0899 51 29.5C51 25.9101 48.0899 23 44.5 23C40.9101 23 38 25.9101 38 29.5C38 33.0899 40.9101 36 44.5 36Z" fill="#9E2AB2"/>
<path d="M44.5 36C48.0899 36 51 33.0899 51 29.5C51 25.9101 48.0899 23 44.5 23C40.9101 23 38 25.9101 38 29.5C38 33.0899 40.9101 36 44.5 36Z" fill="#9E2AB2"/>
</g>
<defs>
<clipPath id="clip0_142_353">
<rect width="178" height="160" fill="white"/>
</clipPath>
</defs>
</svg>
