<svg width="55" height="55" viewBox="0 0 55 55" fill="none" xmlns="http://www.w3.org/2000/svg">
<rect width="55" height="55" rx="14" fill="#A951BA"/>
<g clip-path="url(#clip0_402_423)">
<path d="M16.0513 39C14.6107 39 13.6426 37.523 14.2173 36.2021L19.6326 23.7557C20.2971 22.2285 22.4278 22.135 23.2235 23.5981L27.1725 30.859C27.8252 32.0592 29.4624 32.2662 30.3933 31.2663L34.1363 27.2455C35.0493 26.2649 36.6494 26.4417 37.3262 27.598L42.238 35.9897C43.0184 37.323 42.0569 39 40.512 39H16.0513Z" fill="white"/>
<path d="M16.2416 18.5187C16.9273 18.5187 17.4831 17.9549 17.4831 17.2594C17.4831 16.5638 16.9273 16 16.2416 16C15.5559 16 15 16.5638 15 17.2594C15 17.9549 15.5559 18.5187 16.2416 18.5187Z" fill="white"/>
</g>
<defs>
<clipPath id="clip0_402_423">
<rect width="34" height="31" fill="white" transform="translate(11 12)"/>
</clipPath>
</defs>
</svg>
