<svg width="126" height="113" viewBox="0 0 126 113" fill="none" xmlns="http://www.w3.org/2000/svg">
<g clip-path="url(#clip0_80_1985)">
<path d="M119.7 0H6.3C2.82061 0 0 3.79439 0 8.475V104.525C0 109.206 2.82061 113 6.3 113H119.7C123.179 113 126 109.206 126 104.525V8.475C126 3.79439 123.179 0 119.7 0Z" fill="#F9FAFB"/>
<path d="M27.2596 80.5125C24.2247 80.5125 22.2953 77.2652 23.7465 74.5998L38.1581 48.1299C39.5892 45.5014 43.2942 45.3179 44.978 47.792L56.9426 65.3724C58.285 67.3448 61.0445 67.711 62.8548 66.157L74.9394 55.7834C76.7079 54.2653 79.3946 54.5747 80.7718 56.455L93.7316 74.1489C95.6669 76.7913 93.7799 80.5125 90.5046 80.5125H27.2596Z" fill="#D1D5DB"/>
<path d="M31.4996 30.3687C34.0407 30.3687 36.1007 28.3135 36.1007 25.7781C36.1007 23.2428 34.0407 21.1875 31.4996 21.1875C28.9584 21.1875 26.8984 23.2428 26.8984 25.7781C26.8984 28.3135 28.9584 30.3687 31.4996 30.3687Z" fill="#9E2AB2"/>
</g>
<defs>
<clipPath id="clip0_80_1985">
<rect width="126" height="113" rx="16" fill="white"/>
</clipPath>
</defs>
</svg>
