<svg width="178" height="160" viewBox="0 0 178 160" fill="none" xmlns="http://www.w3.org/2000/svg">
<g clip-path="url(#clip0_142_357)">
<path d="M169.1 0H8.9C3.98467 0 0 5.37258 0 12V148C0 154.627 3.98467 160 8.9 160H169.1C174.015 160 178 154.627 178 148V12C178 5.37258 174.015 0 169.1 0Z" fill="#F9FAFB"/>
<path d="M135 42H42C38.6863 42 36 44.6863 36 48V99C36 102.314 38.6863 105 42 105H135C138.314 105 141 102.314 141 99V48C141 44.6863 138.314 42 135 42Z" fill="#E5E7EB"/>
<path d="M81 66L96 75L81 84V66Z" fill="#9E2AB2"/>
<path d="M123.75 112H53.25C52.0074 112 51 113.119 51 114.5C51 115.881 52.0074 117 53.25 117H123.75C124.993 117 126 115.881 126 114.5C126 113.119 124.993 112 123.75 112Z" fill="#D1D5DB"/>
<path d="M73.5 118C75.433 118 77 116.433 77 114.5C77 112.567 75.433 111 73.5 111C71.567 111 70 112.567 70 114.5C70 116.433 71.567 118 73.5 118Z" fill="#9E2AB2"/>
</g>
<defs>
<clipPath id="clip0_142_357">
<rect width="178" height="160" fill="white"/>
</clipPath>
</defs>
</svg>
