<svg width="25" height="25" viewBox="0 0 25 25" fill="none" xmlns="http://www.w3.org/2000/svg">
<path d="M8.59375 8.59375H6.64062C6.12262 8.59375 5.62584 8.79953 5.25956 9.16581C4.89328 9.53209 4.6875 10.0289 4.6875 10.5469L4.6875 20.7031C4.6875 21.2211 4.89328 21.7179 5.25956 22.0842C5.62584 22.4505 6.12262 22.6562 6.64062 22.6562H18.3594C18.8774 22.6562 19.3742 22.4505 19.7404 22.0842C20.1067 21.7179 20.3125 21.2211 20.3125 20.7031V10.5469C20.3125 10.0289 20.1067 9.53209 19.7404 9.16581C19.3742 8.79953 18.8774 8.59375 18.3594 8.59375H16.4062" stroke="#9E2AB2" stroke-width="1.5" stroke-linecap="round" stroke-linejoin="round"/>
<path d="M16.4062 13.2812L12.5 17.1875L8.59375 13.2812M12.5 2.34375L12.5 16.4062" stroke="#9E2AB2" stroke-width="1.5" stroke-linecap="round" stroke-linejoin="round"/>
</svg>
