<svg width="42" height="40" viewBox="0 0 42 40" fill="none" xmlns="http://www.w3.org/2000/svg">
<circle cx="20" cy="20" r="20" fill="#9E2AB2"/>
<path d="M16.7557 15.7931C15.3593 23.0068 12.9139 34.2528 12.0321 38.4602C11.8536 39.3117 12.4398 40 13.3033 40H16.7557C17.4813 40 18.5096 39.367 18.6758 38.6552L20.456 31.3163C20.7966 29.8577 22.5033 29.9558 23.1264 31.3163L25.3928 35.9331C25.6483 36.4911 26.2025 36.8485 26.8124 36.8485H28.1199C28.633 36.8485 29.1134 36.5948 29.4055 36.1697L33.3626 31.097C34.1774 29.911 35.1429 29.8951 35.1429 31.3375C35.1429 32.4313 37.1174 33.1214 38.0882 32.6323L38.3965 32.4769C38.8404 32.2532 39.1526 31.8304 39.2377 31.3375L41.8187 16.2414C41.985 15.2776 41.3413 14 40.3706 14H38.7033C38.1331 14 37.1979 14.8413 36.9231 15.3448L30.2473 26.9716C29.6258 28.1104 27.3416 27.7369 26.8124 26.5517L21.7912 15.3448C21.5387 14.7794 20.7255 14 20.1103 14H18.5099C17.7575 14 16.8998 15.0489 16.7557 15.7931Z" fill="white"/>
</svg>
