<svg width="26" height="26" viewBox="0 0 26 26" fill="none" xmlns="http://www.w3.org/2000/svg">
<path d="M5.53556 1.95483L4.39156 3.09721L6.09375 4.79858L7.23612 3.65621L5.53556 1.95483ZM20.4653 1.95483L18.7631 3.65621L19.9062 4.79858L21.6076 3.09802L20.4653 1.95483ZM13 2.46183C12.7319 2.464 12.461 2.48133 12.1875 2.51383H12.1631C8.86762 2.89165 6.24487 5.55421 5.78906 8.83508C5.42506 11.4757 6.51381 13.8701 8.32812 15.4123C9.07017 16.0457 9.57213 16.9148 9.75 17.8741V22.7491H11.6025C11.8853 23.2342 12.4012 23.5616 13 23.5616C13.5988 23.5616 14.1147 23.2342 14.3975 22.7491H16.25V19.4991H16.3264V18.5339C16.3264 17.3428 16.9455 16.1419 17.9514 15.2083C19.2969 13.8612 20.3125 11.9478 20.3125 9.74996C20.3125 5.73621 17.0089 2.42446 13 2.46183ZM13 4.08683C16.1403 4.04296 18.6875 6.61371 18.6875 9.74996C18.6875 11.4513 17.8994 12.9496 16.8082 14.04L16.8342 14.066C15.7502 15.0662 15.0491 16.4133 14.8517 17.875H11.2978C11.1191 16.4823 10.5219 15.1344 9.39331 14.1675C7.95762 12.9488 7.10206 11.1125 7.38806 9.03902C7.74313 6.47965 9.81987 4.42158 12.3646 4.13965C12.5747 4.11051 12.7863 4.09315 12.9984 4.08765L13 4.08683ZM1.625 9.74996V11.375H4.0625V9.74996H1.625ZM21.9375 9.74996V11.375H24.375V9.74996H21.9375ZM6.09375 16.3263L4.39237 18.0269L5.53556 19.1701L7.23531 17.4687L6.09375 16.3263ZM19.9062 16.3263L18.7639 17.4687L20.4644 19.1701L21.6076 18.0269L19.9062 16.3263ZM11.375 19.5H14.625V21.125H11.375V19.5Z" fill="#9E2AB2"/>
</svg>
